# xmcd CD database file
#
# Track frame offsets:
#	150
#	18377
#	41595
#	65487
#	81990
#	98990
#	121747
#	142605
#	166522
#
# Disc length: 2555 seconds
#
# Revision: 2
# Processed by: cddbd v1.5.1PL0 Copyright (c) Steve Scherf et al.
# Submitted via: CDex 1.50
#
DISCID=6509f909
DTITLE=Sierra Maestra - Dundunbanza
DYEAR=1900
DGENRE=Salsa
TTITLE0=Juana Pena
TTITLE1=Dundunbanza
TTITLE2=No Mi Llores Mas
TTITLE3=Bururu Barara
TTITLE4=Mi Guajira Son
TTITLE5=Cangrejo Fue A Estudiar
TTITLE6=Kila Kike Y Chocolate
TTITLE7=El Gago
TTITLE8=El Reloj De Pastora
EXTD=
EXTT0=
EXTT1=
EXTT2=
EXTT3=
EXTT4=
EXTT5=
EXTT6=
EXTT7=
EXTT8=
PLAYORDER=
